HIERARCHY
ROOT Root
{
  OFFSET 0.0 0.0 0.0
  CHANNELS 6 Xposition Yposition Zposition Zrotation Yrotation Xrotation
  JOINT Hips
  {
    OFFSET 0.0 100.0 0.0
    CHANNELS 6 Xposition Yposition Zposition Zrotation Yrotation Xrotation
    JOINT Spine1
    {
      OFFSET 5.003913 -0.037094 -0.013727
      CHANNELS 3 Zrotation Yrotation Xrotation
      JOINT Spine2
      {
        OFFSET 7.125363 -1e-06 0.0
        CHANNELS 3 Zrotation Yrotation Xrotation
        JOINT Chest
        {
          OFFSET 7.594027 1e-06 0.0
          CHANNELS 3 Zrotation Yrotation Xrotation
          JOINT Neck1
          {
            OFFSET 26.313086 -0.460272 -0.181672
            CHANNELS 3 Zrotation Yrotation Xrotation
            JOINT Neck2
            {
              OFFSET 8.045911 0.0 0.0
              CHANNELS 3 Zrotation Yrotation Xrotation
              JOINT Head
              {
                OFFSET 6.432774 0.0 0.0
                CHANNELS 3 Zrotation Yrotation Xrotation
                JOINT HeadEnd
                {
                  OFFSET 16.169773 0.06451 0.00362
                  CHANNELS 3 Zrotation Yrotation Xrotation
                }
                JOINT Jaw
                {
                  OFFSET 0.108741 3.12938 0.002639
                  CHANNELS 3 Zrotation Yrotation Xrotation
                }
                JOINT LeftEye
                {
                  OFFSET 4.45173 8.166359 3.206392
                  CHANNELS 3 Zrotation Yrotation Xrotation
                }
                JOINT RightEye
                {
                  OFFSET 4.436895 8.135758 -3.222429
                  CHANNELS 3 Zrotation Yrotation Xrotation
                }
              }
            }
          }
          JOINT LeftShoulder
          {
            OFFSET 23.218927 5.195579 1.621656
            CHANNELS 3 Zrotation Yrotation Xrotation
            JOINT LeftArm
            {
              OFFSET 15.902118 2e-06 -2e-06
              CHANNELS 3 Zrotation Yrotation Xrotation
              JOINT LeftForeArm
              {
                OFFSET 28.739307 0.0 -1e-06
                CHANNELS 3 Zrotation Yrotation Xrotation
                JOINT LeftHand
                {
                  OFFSET 27.093981 -4e-06 0.0
                  CHANNELS 3 Zrotation Yrotation Xrotation
                  JOINT LeftHandThumb1
                  {
                    OFFSET 2.276781 3.380274 0.83384
                    CHANNELS 3 Zrotation Yrotation Xrotation
                    JOINT LeftHandThumb2
                    {
                      OFFSET 4.705309 -1e-06 -1e-06
                      CHANNELS 3 Zrotation Yrotation Xrotation
                      JOINT LeftHandThumb3
                      {
                        OFFSET 2.798515 0.0 3e-06
                        CHANNELS 3 Zrotation Yrotation Xrotation
                        JOINT LeftHandThumbEnd
                        {
                          OFFSET 3.180793 4e-06 -4e-06
                          CHANNELS 3 Zrotation Yrotation Xrotation
                        }
                      }
                    }
                  }
                  JOINT LeftHandIndex1
                  {
                    OFFSET 3.247786 2.352677 0.137192
                    CHANNELS 3 Zrotation Yrotation Xrotation
                    JOINT LeftHandIndex2
                    {
                      OFFSET 6.367095 1e-06 0.0
                      CHANNELS 3 Zrotation Yrotation Xrotation
                      JOINT LeftHandIndex3
                      {
                        OFFSET 3.662364 0.0 0.0
                        CHANNELS 3 Zrotation Yrotation Xrotation
                        JOINT LeftHandIndex4
                        {
                          OFFSET 2.329242 4e-06 -4e-06
                          CHANNELS 3 Zrotation Yrotation Xrotation
                          JOINT LeftHandIndexEnd
                          {
                            OFFSET 2.767823 1e-06 0.0
                            CHANNELS 3 Zrotation Yrotation Xrotation
                          }
                        }
                      }
                    }
                  }
                  JOINT LeftHandMiddle1
                  {
                    OFFSET 3.163612 0.945023 -0.406112
                    CHANNELS 3 Zrotation Yrotation Xrotation
                    JOINT LeftHandMiddle2
                    {
                      OFFSET 6.276789 3e-06 0.0
                      CHANNELS 3 Zrotation Yrotation Xrotation
                      JOINT LeftHandMiddle3
                      {
                        OFFSET 4.35652 -1e-06 4e-06
                        CHANNELS 3 Zrotation Yrotation Xrotation
                        JOINT LeftHandMiddle4
                        {
                          OFFSET 2.996877 0.0 8e-06
                          CHANNELS 3 Zrotation Yrotation Xrotation
                          JOINT LeftHandMiddleEnd
                          {
                            OFFSET 2.323256 3e-06 -4e-06
                            CHANNELS 3 Zrotation Yrotation Xrotation
                          }
                        }
                      }
                    }
                  }
                  JOINT LeftHandRing1
                  {
                    OFFSET 2.882606 -0.309162 0.107445
                    CHANNELS 3 Zrotation Yrotation Xrotation
                    JOINT LeftHandRing2
                    {
                      OFFSET 6.033198 0.0 4e-06
                      CHANNELS 3 Zrotation Yrotation Xrotation
                      JOINT LeftHandRing3
                      {
                        OFFSET 4.350578 3e-06 0.0
                        CHANNELS 3 Zrotation Yrotation Xrotation
                        JOINT LeftHandRing4
                        {
                          OFFSET 2.651321 2e-06 -7e-06
                          CHANNELS 3 Zrotation Yrotation Xrotation
                          JOINT LeftHandRingEnd
                          {
                            OFFSET 1.937663 1e-06 -4e-06
                            CHANNELS 3 Zrotation Yrotation Xrotation
                          }
                        }
                      }
                    }
                  }
                  JOINT LeftHandPinky1
                  {
                    OFFSET 2.865315 -1.525436 0.575687
                    CHANNELS 3 Zrotation Yrotation Xrotation
                    JOINT LeftHandPinky2
                    {
                      OFFSET 5.54936 1e-06 -8e-06
                      CHANNELS 3 Zrotation Yrotation Xrotation
                      JOINT LeftHandPinky3
                      {
                        OFFSET 3.070974 0.0 -4e-06
                        CHANNELS 3 Zrotation Yrotation Xrotation
                        JOINT LeftHandPinky4
                        {
                          OFFSET 1.549672 1e-06 0.0
                          CHANNELS 3 Zrotation Yrotation Xrotation
                          JOINT LeftHandPinkyEnd
                          {
                            OFFSET 1.952123 0.0 0.0
                            CHANNELS 3 Zrotation Yrotation Xrotation
                          }
                        }
                      }
                    }
                  }
                }
              }
            }
          }
          JOINT RightShoulder
          {
            OFFSET 23.161716 5.296122 -1.380114
            CHANNELS 3 Zrotation Yrotation Xrotation
            JOINT RightArm
            {
              OFFSET -16.027195 -2e-06 1.1e-05
              CHANNELS 3 Zrotation Yrotation Xrotation
              JOINT RightForeArm
              {
                OFFSET -28.736639 4e-06 2e-06
                CHANNELS 3 Zrotation Yrotation Xrotation
                JOINT RightHand
                {
                  OFFSET -27.133619 6e-06 0.0
                  CHANNELS 3 Zrotation Yrotation Xrotation
                  JOINT RightHandThumb1
                  {
                    OFFSET -2.274328 -3.351035 -0.83067
                    CHANNELS 3 Zrotation Yrotation Xrotation
                    JOINT RightHandThumb2
                    {
                      OFFSET -4.703594 -3e-06 2e-06
                      CHANNELS 3 Zrotation Yrotation Xrotation
                      JOINT RightHandThumb3
                      {
                        OFFSET -2.794935 -4e-06 -3e-06
                        CHANNELS 3 Zrotation Yrotation Xrotation
                        JOINT RightHandThumbEnd
                        {
                          OFFSET -3.183852 4e-06 1e-06
                          CHANNELS 3 Zrotation Yrotation Xrotation
                        }
                      }
                    }
                  }
                  JOINT RightHandIndex1
                  {
                    OFFSET -3.253496 -2.33755 -0.127667
                    CHANNELS 3 Zrotation Yrotation Xrotation
                    JOINT RightHandIndex2
                    {
                      OFFSET -6.344434 0.0 0.0
                      CHANNELS 3 Zrotation Yrotation Xrotation
                      JOINT RightHandIndex3
                      {
                        OFFSET -3.654871 0.0 -8e-06
                        CHANNELS 3 Zrotation Yrotation Xrotation
                        JOINT RightHandIndex4
                        {
                          OFFSET -2.327586 -1e-06 0.0
                          CHANNELS 3 Zrotation Yrotation Xrotation
                          JOINT RightHandIndexEnd
                          {
                            OFFSET -2.770001 3e-06 8e-06
                            CHANNELS 3 Zrotation Yrotation Xrotation
                          }
                        }
                      }
                    }
                  }
                  JOINT RightHandMiddle1
                  {
                    OFFSET -3.168223 -0.944764 0.411762
                    CHANNELS 3 Zrotation Yrotation Xrotation
                    JOINT RightHandMiddle2
                    {
                      OFFSET -6.266691 -1e-06 -4e-06
                      CHANNELS 3 Zrotation Yrotation Xrotation
                      JOINT RightHandMiddle3
                      {
                        OFFSET -4.348901 0.0 0.0
                        CHANNELS 3 Zrotation Yrotation Xrotation
                        JOINT RightHandMiddle4
                        {
                          OFFSET -3.00024 2e-06 -4e-06
                          CHANNELS 3 Zrotation Yrotation Xrotation
                          JOINT RightHandMiddleEnd
                          {
                            OFFSET -2.321477 -4e-06 -4e-06
                            CHANNELS 3 Zrotation Yrotation Xrotation
                          }
                        }
                      }
                    }
                  }
                  JOINT RightHandRing1
                  {
                    OFFSET -2.885654 0.293261 -0.119232
                    CHANNELS 3 Zrotation Yrotation Xrotation
                    JOINT RightHandRing2
                    {
                      OFFSET -6.032835 -1e-06 -4e-06
                      CHANNELS 3 Zrotation Yrotation Xrotation
                      JOINT RightHandRing3
                      {
                        OFFSET -4.33881 0.0 -4e-06
                        CHANNELS 3 Zrotation Yrotation Xrotation
                        JOINT RightHandRing4
                        {
                          OFFSET -2.654903 -4e-06 -4e-06
                          CHANNELS 3 Zrotation Yrotation Xrotation
                          JOINT RightHandRingEnd
                          {
                            OFFSET -1.935122 0.0 4e-06
                            CHANNELS 3 Zrotation Yrotation Xrotation
                          }
                        }
                      }
                    }
                  }
                  JOINT RightHandPinky1
                  {
                    OFFSET -2.866241 1.503904 -0.60527
                    CHANNELS 3 Zrotation Yrotation Xrotation
                    JOINT RightHandPinky2
                    {
                      OFFSET -5.553177 -2e-06 0.0
                      CHANNELS 3 Zrotation Yrotation Xrotation
                      JOINT RightHandPinky3
                      {
                        OFFSET -3.062664 -1e-06 -4e-06
                        CHANNELS 3 Zrotation Yrotation Xrotation
                        JOINT RightHandPinky4
                        {
                          OFFSET -1.546529 2e-06 4e-06
                          CHANNELS 3 Zrotation Yrotation Xrotation
                          JOINT RightHandPinkyEnd
                          {
                            OFFSET -1.952341 0.0 -4e-06
                            CHANNELS 3 Zrotation Yrotation Xrotation
                          }
                        }
                      }
                    }
                  }
                }
              }
            }
          }
        }
      }
    }
    JOINT LeftLeg
    {
      OFFSET -8.443107 2.567604 10.043214
      CHANNELS 3 Zrotation Yrotation Xrotation
      JOINT LeftShin
      {
        OFFSET 43.229198 1e-06 -1e-06
        CHANNELS 3 Zrotation Yrotation Xrotation
        JOINT LeftFoot
        {
          OFFSET 42.298611 1e-06 1e-06
          CHANNELS 3 Zrotation Yrotation Xrotation
          JOINT LeftToeBase
          {
            OFFSET 14.165858 1e-06 0.0
            CHANNELS 3 Zrotation Yrotation Xrotation
            JOINT LeftToeEnd
            {
              OFFSET 6.7141 -0.234461 0.0
              CHANNELS 3 Zrotation Yrotation Xrotation
            }
          }
        }
      }
    }
    JOINT RightLeg
    {
      OFFSET -8.303923 2.592729 -10.047278
      CHANNELS 3 Zrotation Yrotation Xrotation
      JOINT RightShin
      {
        OFFSET -43.369682 0.0 1e-06
        CHANNELS 3 Zrotation Yrotation Xrotation
        JOINT RightFoot
        {
          OFFSET -42.260784 4e-06 2e-06
          CHANNELS 3 Zrotation Yrotation Xrotation
          JOINT RightToeBase
          {
            OFFSET -14.222245 -2e-06 -1e-06
            CHANNELS 3 Zrotation Yrotation Xrotation
            JOINT RightToeEnd
            {
              OFFSET -6.660062 0.232574 -2e-06
              CHANNELS 3 Zrotation Yrotation Xrotation
            }
          }
        }
      }
    }
  }
}
MOTION
Frames: 5
Frame Time: 0.03333333333333333
0.0 0.0 0.0 0.0 -0.0 0.0 0.217127 100.058174 0.252104 90.490013 3.089211 93.260597 -2.288458 1.426501 0.742504 -11.657131 0.976879 2.604655 17.173334 -2.738677 0.263623 18.388296 0.181994 2.278235 -2.57319 -0.840217 -9.406734 -37.058136 -7.19947 -9.832144 4e-06 -0.0 -1e-06 0.060097 0.036649 0.038592 0.122336 -0.149274 0.020172 0.160533 0.203373 0.034655 -140.162689 -63.287289 156.657425 29.564651 -54.669178 -13.18381 24.499079 -0.267076 -0.20657 2.081054 -3.486958 8.949221 17.636627 -26.322733 52.411205 -19.466665 -14.395598 29.410395 0.0 -8.774823 -2e-06 16.018116 -17.715162 6.414005 -0.609776 -1.795654 -3.889328 -4.80709 -11.046811 -2.937851 4e-06 -20.976019 -1e-06 -5.019973 -25.03356 -4.031882 6e-06 1e-06 -0.0 -10.634537 -5.686972 -3.565587 10.573277 -17.922951 -3.113901 1e-06 -13.821211 1e-06 -0.501776 -31.181505 -4.027017 -11.708634 -60.469856 7.654907 -13.982715 -7.150198 -2.875042 13.772733 -8.40149 -3.218242 0.347731 -34.211555 0.771657 -0.963028 -17.73337 2.621017 -0.0 1e-06 1e-06 -17.346422 -20.095219 -4.201782 21.757565 -1.638375 3.866428 3e-06 -6.338823 1e-06 -1.69759 -22.591747 -6.194006 1e-06 -4e-06 -2e-06 4.892392 -86.210953 -174.825272 44.80706 12.224439 -44.941376 40.690418 0.630418 -0.218884 1.878516 21.587019 -12.259444 22.182116 -20.375891 49.933323 -16.701817 -16.743528 28.476532 -5e-06 -12.690601 -1e-06 16.668625 -17.466507 2.74916 -0.105918 -1.513856 -4.275884 -5.039043 -5.612874 -2.953556 3e-06 -11.020523 -2e-06 -6.111296 -15.895334 -3.840474 -0.0 -0.0 1e-06 -10.283369 -5.680285 -4.34184 11.028296 -11.302407 -2.372635 -1.384269 -14.238582 -6.320122 -0.625436 -26.924191 -3.827603 -4.649143 -50.496044 -3.113782 -13.708526 -7.363477 -3.720941 18.141151 -14.052742 -3.242677 9e-06 -18.78727 -4e-06 -0.42971 -8.456043 2.555505 0.0 1e-06 -0.0 -15.923536 -20.094484 -5.473585 30.419218 -7.190827 1.735925 -2e-06 -8.162922 -1e-06 -1.861897 -22.861469 -6.167944 -2e-06 -0.0 -2e-06 -172.826401 -4.627596 11.575213 6.166043 -0.089887 0.103302 -78.649986 2.771739 -5.131691 -3.817264 1.565993 2.212795 -0.999999 -1e-06 -0.0 3.935559 -3.277769 -2.243651 9.637878 0.00246 0.245903 -79.12944 -7.159308 -7.166359 -3.581543 0.5145 1.632176 -1.000002 -0.0 0.0 
0.0 0.0 0.0 0.0 -0.0 0.0 0.190358 100.062454 0.254927 90.504257 3.066923 93.363411 -2.263592 1.456014 0.743633 -11.650968 1.009623 2.630383 17.130718 -2.778926 0.291336 18.471869 0.158893 2.255 -2.570292 -0.894148 -9.408539 -36.908497 -7.212491 -9.962573 5e-06 -1e-06 -0.0 0.058366 0.046893 0.058622 0.127829 -0.138561 0.038807 0.16276 0.213177 0.055686 -140.086441 -63.229092 156.572968 29.531628 -54.762363 -13.349573 24.424334 -0.310688 -0.206071 2.168717 -3.28062 8.966123 17.636627 -26.322725 52.411179 -19.466658 -14.395597 29.410381 -0.0 -8.77482 -2e-06 16.060846 -17.670942 6.391141 -0.609778 -1.795653 -3.889327 -4.807089 -11.046811 -2.93785 4e-06 -20.976019 -1e-06 -5.019973 -25.03356 -4.03188 6e-06 3e-06 0.0 -10.634533 -5.68697 -3.565586 10.573271 -17.922951 -3.113899 2e-06 -13.82121 1e-06 -0.501779 -31.181505 -4.027014 -11.720894 -60.502731 7.689735 -13.982713 -7.150198 -2.87504 13.772727 -8.401491 -3.218241 0.347732 -34.211544 0.771655 -0.963028 -17.733372 2.621018 0.0 1e-06 0.0 -17.346416 -20.095217 -4.20178 21.757557 -1.638374 3.866427 1e-06 -6.338822 0.0 -1.697589 -22.591743 -6.194007 1e-06 -5e-06 -2e-06 2.407108 -86.400597 -172.338959 44.83741 12.672993 -44.997967 39.973938 0.676122 -0.266143 1.876936 20.9051 -11.924323 22.182108 -20.375896 49.933319 -16.701813 -16.74353 28.47653 -4e-06 -12.690602 -1e-06 16.659628 -17.512396 2.733625 -0.105918 -1.513858 -4.275881 -5.039043 -5.612874 -2.953556 3e-06 -11.020526 -0.0 -6.111298 -15.895336 -3.84047 1e-06 0.0 1e-06 -10.283369 -5.680288 -4.341837 11.028295 -11.302409 -2.372636 -1.384267 -14.238583 -6.320123 -0.625439 -26.924198 -3.827601 -4.672168 -50.480476 -3.105001 -13.708525 -7.363475 -3.720936 18.14115 -14.052739 -3.242677 6e-06 -18.78727 -2e-06 -0.429712 -8.456045 2.555507 -1e-06 0.0 1e-06 -15.923538 -20.094484 -5.473579 30.419214 -7.190827 1.735924 -1e-06 -8.162925 -1e-06 -1.861898 -22.861473 -6.167943 -1e-06 -0.0 -2e-06 -172.871933 -4.647447 11.626693 6.205095 -0.090778 0.093012 -78.635101 2.897125 -5.150182 -3.846447 1.556853 2.206316 -0.999999 -1e-06 -0.0 3.96053 -3.263415 -2.283072 9.595264 0.00719 0.247177 -79.1241 -7.258781 -7.186584 -3.558804 0.531387 1.632426 -1.000002 0.0 -0.0 
0.0 0.0 0.0 0.0 -0.0 0.0 0.163501 100.070145 0.260326 90.527893 3.043098 93.438858 -2.249854 1.50178 0.72678 -11.657944 1.039808 2.645302 17.119343 -2.838054 0.330871 18.554443 0.148916 2.246638 -2.569967 -0.985346 -9.41303 -36.774666 -7.248119 -10.041057 6e-06 -1e-06 0.0 0.053577 0.05763 0.077339 0.117943 -0.12829 0.054471 0.147274 0.224315 0.076492 -139.995255 -63.163502 156.497238 29.583246 -54.869015 -13.530515 24.298532 -0.342355 -0.202178 2.284601 -3.077652 9.04591 17.636631 -26.322727 52.411179 -19.466663 -14.395596 29.410385 0.0 -8.774821 -2e-06 16.077894 -17.627699 6.376047 -0.609775 -1.795654 -3.889327 -4.80709 -11.046811 -2.93785 3e-06 -20.976019 -1e-06 -5.019971 -25.033556 -4.031879 6e-06 1e-06 -0.0 -10.634534 -5.686971 -3.565587 10.573275 -17.922955 -3.113902 3e-06 -13.821212 0.0 -0.501775 -31.181511 -4.027017 -11.725848 -60.509766 7.707849 -13.982715 -7.150199 -2.875041 13.772731 -8.401493 -3.218242 0.347734 -34.211559 0.771654 -0.963027 -17.733374 2.621017 1e-06 1e-06 1e-06 -17.346416 -20.095217 -4.20178 21.757555 -1.638375 3.866426 2e-06 -6.338823 -1e-06 -1.697589 -22.591747 -6.194007 -0.0 -4e-06 -2e-06 -0.697824 -86.610252 -169.181473 45.077202 13.193556 -44.666779 38.89727 0.760611 -0.327183 2.180247 19.182875 -11.252548 22.182117 -20.375898 49.933319 -16.701809 -16.74353 28.476528 -3e-06 -12.6906 -2e-06 16.645407 -17.579214 2.714465 -0.10592 -1.513856 -4.275882 -5.039041 -5.612873 -2.953554 2e-06 -11.020521 -1e-06 -6.111298 -15.89533 -3.840472 1e-06 0.0 1e-06 -10.283369 -5.680285 -4.341838 11.028296 -11.302409 -2.372634 -1.384268 -14.238582 -6.320123 -0.625439 -26.924194 -3.827602 -4.68019 -50.392239 -3.138979 -13.708524 -7.363478 -3.720941 18.141146 -14.052738 -3.242671 5e-06 -18.78727 1e-06 -0.429712 -8.456044 2.555505 0.0 0.0 0.0 -15.923536 -20.094481 -5.473585 30.41921 -7.190826 1.735929 1e-06 -8.162925 -1e-06 -1.861901 -22.861473 -6.167942 -0.0 -2e-06 -2e-06 -172.917053 -4.654247 11.656379 6.236727 -0.086611 0.071205 -78.592804 2.998354 -5.148347 -3.859049 1.533154 2.196675 -0.999999 0.0 0.0 3.998726 -3.260284 -2.306227 9.52872 0.008901 0.248892 -79.107933 -7.346895 -7.237496 -3.539339 0.558459 1.635589 -1.000001 -0.0 0.0 
0.0 0.0 0.0 0.0 -0.0 0.0 0.135175 100.08844 0.269611 90.556587 3.017236 93.446083 -2.258414 1.564595 0.699531 -11.673219 1.053888 2.649011 17.138874 -2.912612 0.395903 18.619272 0.154462 2.269643 -2.571837 -1.093529 -9.497407 -36.617283 -7.251625 -9.991744 7e-06 -1e-06 -0.0 0.044119 0.062629 0.081916 0.09624 -0.124896 0.054609 0.121488 0.230595 0.083981 -139.85437 -63.087337 156.39949 29.740221 -54.996407 -13.741169 24.133245 -0.32392 -0.194124 2.392541 -2.979561 9.212524 17.636629 -26.322733 52.411201 -19.466665 -14.395594 29.410393 0.0 -8.774821 -3e-06 16.059103 -17.602528 6.3564 -0.609776 -1.795654 -3.889328 -4.80709 -11.046813 -2.937851 5e-06 -20.976021 -2e-06 -5.01997 -25.033562 -4.031882 6e-06 0.0 0.0 -10.634533 -5.686971 -3.565588 10.573272 -17.922951 -3.113901 2e-06 -13.821211 0.0 -0.501774 -31.181507 -4.027018 -11.640197 -60.484646 7.60929 -13.982716 -7.150199 -2.875043 13.772731 -8.401495 -3.218241 0.347734 -34.211559 0.771654 -0.963028 -17.733376 2.621018 -0.0 1e-06 0.0 -17.34642 -20.095221 -4.201782 21.757559 -1.638375 3.866428 1e-06 -6.338824 -0.0 -1.697588 -22.591749 -6.194007 0.0 -5e-06 -2e-06 -5.226452 -86.842476 -164.558884 45.501671 13.781803 -43.664684 37.20472 0.921263 -0.408297 2.92884 16.128126 -10.301116 22.182121 -20.375898 49.933327 -16.701813 -16.74353 28.476532 -2e-06 -12.690601 -4e-06 16.651926 -17.611994 2.70335 -0.10592 -1.513856 -4.275879 -5.039043 -5.612872 -2.953556 4e-06 -11.020524 -2e-06 -6.111297 -15.89533 -3.840472 0.0 0.0 1e-06 -10.283372 -5.680291 -4.341841 11.028295 -11.302404 -2.372632 -1.384269 -14.23858 -6.32012 -0.625436 -26.924189 -3.827601 -4.698188 -50.280891 -3.159831 -13.708527 -7.363478 -3.720941 18.14115 -14.052739 -3.242673 6e-06 -18.78727 -1e-06 -0.429711 -8.456045 2.555506 -0.0 -1e-06 0.0 -15.923536 -20.094482 -5.473585 30.419218 -7.190827 1.735931 4e-06 -8.162926 -1e-06 -1.861902 -22.861467 -6.167941 1e-06 -4e-06 -1e-06 -172.937698 -4.648833 11.619489 6.237252 -0.074804 0.04107 -78.488884 3.0813 -5.142032 -3.849429 1.491892 2.187266 -0.999999 -0.0 -0.0 4.104163 -3.257283 -2.274862 9.309396 0.001835 0.248178 -79.016335 -7.421362 -7.273356 -3.511046 0.580538 1.638183 -1.000001 -0.0 -0.0 
0.0 0.0 0.0 0.0 -0.0 0.0 0.100664 100.117943 0.272372 90.575493 2.978886 93.393387 -2.291228 1.622387 0.691802 -11.703036 1.057591 2.658885 17.167974 -2.968389 0.473898 18.689409 0.147075 2.310689 -2.576635 -1.175858 -9.667151 -36.418201 -7.208534 -9.869027 5e-06 -0.0 0.0 0.037023 0.054617 0.058564 0.076042 -0.132427 0.027107 0.102476 0.221547 0.063567 -139.676224 -63.036198 156.252594 29.959583 -55.159477 -13.849075 23.970953 -0.245604 -0.192755 2.424479 -3.021868 9.593168 17.636623 -26.322737 52.411194 -19.466663 -14.395596 29.410393 -0.0 -8.774821 -2e-06 15.993096 -17.614717 6.321306 -0.609778 -1.795654 -3.889328 -4.807087 -11.046811 -2.93785 5e-06 -20.976019 -1e-06 -5.01997 -25.033556 -4.03188 6e-06 0.0 -0.0 -10.634534 -5.686971 -3.565588 10.573272 -17.922951 -3.113901 2e-06 -13.821212 0.0 -0.501775 -31.181507 -4.027018 -11.472162 -60.403503 7.381965 -13.982711 -7.150197 -2.875043 13.772727 -8.401492 -3.218241 0.347734 -34.211555 0.771655 -0.963028 -17.733372 2.621018 -0.0 1e-06 0.0 -17.346416 -20.095219 -4.20178 21.757555 -1.638374 3.866427 2e-06 -6.338825 0.0 -1.697588 -22.591745 -6.194006 -0.0 -4e-06 -2e-06 -10.929479 -87.059219 -158.794891 46.075901 14.343423 -41.743443 34.640217 1.080164 -0.550809 3.969704 11.734106 -8.981295 22.182121 -20.375898 49.933327 -16.701818 -16.743528 28.476536 -5e-06 -12.690602 -1e-06 16.670635 -17.591108 2.70115 -0.105921 -1.513856 -4.275882 -5.039041 -5.612872 -2.953557 5e-06 -11.020525 -3e-06 -6.111295 -15.89533 -3.840471 0.0 -0.0 -0.0 -10.283371 -5.680288 -4.341837 11.028295 -11.302406 -2.372637 -1.384267 -14.238579 -6.320119 -0.625436 -26.924189 -3.827599 -4.781948 -50.274399 -3.089087 -13.708524 -7.363473 -3.720942 18.141148 -14.052741 -3.242675 9e-06 -18.78727 -2e-06 -0.429711 -8.456044 2.555506 0.0 -0.0 -1e-06 -15.923534 -20.094482 -5.473588 30.419214 -7.190831 1.735928 3e-06 -8.162927 -3e-06 -1.861901 -22.861469 -6.167941 -1e-06 -2e-06 -1e-06 -172.947952 -4.645569 11.55653 6.215169 -0.060353 0.020541 -78.336609 3.099044 -5.175153 -3.833071 1.460725 2.184157 -0.999999 -0.0 0.0 4.27046 -3.243741 -2.213946 8.913453 -0.015094 0.245217 -78.827103 -7.449352 -7.257198 -3.467776 0.585232 1.638894 -1.000002 0.0 -0.0 
